<?xml version="1.0" standalone="no"?>
<!DOCTYPE svg PUBLIC "-//W3C//DTD SVG 20010904//EN"
 "http://www.w3.org/TR/2001/REC-SVG-20010904/DTD/svg10.dtd">
<svg version="1.0" xmlns="http://www.w3.org/2000/svg"
 width="900.000000pt" height="900.000000pt" viewBox="0 0 900.000000 900.000000"
 preserveAspectRatio="xMidYMid meet">

<g transform="translate(0.000000,900.000000) scale(0.100000,-0.100000)"
fill="#808080" stroke="none">
<path d="M2751 8424 c-151 -21 -312 -64 -497 -135 -24 -8 -23 -10 55 -120 165
-232 316 -383 527 -525 197 -132 437 -235 661 -284 281 -60 653 -50 891 25
l74 23 -6 -21 c-45 -167 -76 -381 -76 -523 l0 -61 -162 38 c-369 88 -705 129
-1055 130 -295 1 -466 -21 -721 -92 -783 -220 -1421 -844 -1661 -1624 -77
-252 -104 -448 -103 -754 5 -1136 426 -2283 1160 -3161 105 -126 307 -340 386
-411 279 -249 575 -393 941 -456 140 -24 454 -24 586 0 53 10 243 55 423 101
l326 83 307 -78 c451 -115 499 -123 733 -123 236 1 368 22 569 90 382 129 667
350 1056 819 742 892 1149 2014 1148 3165 0 190 -4 260 -21 367 -43 269 -112
487 -227 718 -367 741 -1084 1244 -1920 1345 -113 14 -480 14 -644 0 -246 -20
-571 -76 -765 -130 -58 -17 -111 -30 -118 -30 -17 0 -2 254 21 370 86 422 363
803 742 1021 105 60 133 93 125 153 -11 88 -99 120 -197 71 -279 -141 -556
-417 -714 -712 -16 -29 -31 -53 -34 -53 -3 1 -31 33 -61 72 -244 315 -623 560
-1025 662 -213 54 -504 70 -724 40z m524 -239 c277 -48 506 -145 735 -308 85
-61 300 -264 300 -284 0 -14 -139 -41 -281 -54 -418 -40 -893 117 -1220 404
-87 76 -199 192 -199 206 0 10 88 30 205 47 111 16 336 11 460 -11z m125
-1446 c305 -21 555 -63 924 -153 172 -42 180 -43 230 -30 131 35 494 115 606
133 308 51 694 73 910 52 534 -52 1013 -273 1375 -635 192 -192 324 -375 435
-603 161 -330 230 -673 217 -1078 -36 -1103 -417 -2104 -1126 -2955 -126 -150
-326 -356 -421 -432 -292 -236 -634 -359 -1000 -359 -212 0 -223 3 -877 161
l-172 42 -352 -86 c-412 -102 -505 -117 -694 -117 -214 0 -392 33 -580 108
-236 93 -403 211 -628 443 -719 742 -1184 1709 -1307 2715 -67 548 -49 916 60
1259 270 844 1012 1443 1900 1535 121 12 332 12 500 0z"/>
<path d="M2954 5959 c-116 -13 -303 -63 -412 -111 -179 -78 -328 -184 -471
-334 -221 -231 -352 -521 -383 -848 -10 -108 -9 -125 6 -156 42 -90 170 -93
210 -5 7 16 16 77 19 135 17 309 178 621 425 824 201 164 443 259 697 272 55
3 112 10 126 15 66 25 77 126 20 183 -27 26 -38 30 -93 32 -35 1 -100 -2 -144
-7z"/>
<path d="M3757 170 c3 -11 9 -22 13 -25 5 -3 6 4 3 15 -3 11 -9 22 -13 25 -5
3 -6 -4 -3 -15z"/>
<path d="M3780 175 c0 -8 5 -15 10 -15 6 0 10 7 10 15 0 8 -4 15 -10 15 -5 0
-10 -7 -10 -15z"/>
<path d="M3860 185 c1 -6 7 -21 16 -35 l15 -25 -7 25 c-7 26 -24 52 -24 35z"/>
<path d="M3891 174 c0 -11 3 -14 6 -6 3 7 2 16 -1 19 -3 4 -6 -2 -5 -13z"/>
<path d="M3946 170 c3 -14 8 -27 11 -30 6 -7 23 23 22 40 0 10 -3 8 -8 -5 -8
-19 -8 -19 -20 0 -11 18 -11 18 -5 -5z"/>
<path d="M4023 165 c1 -19 7 -30 17 -30 10 0 16 11 17 30 l2 30 -8 -30 c-8
-29 -9 -29 -25 15 -3 8 -4 2 -3 -15z"/>
<path d="M4126 182 c7 -4 14 -16 16 -27 3 -17 5 -15 10 8 4 23 2 27 -16 27
-13 0 -16 -3 -10 -8z"/>
<path d="M4180 171 c0 -29 25 -33 28 -5 1 15 -4 24 -13 24 -8 0 -15 -9 -15
-19z"/>
<path d="M4241 162 c-11 -25 -10 -26 4 -8 13 17 15 18 15 3 0 -9 4 -17 9 -17
10 0 3 38 -9 45 -4 2 -12 -8 -19 -23z"/>
<path d="M4297 183 c-13 -12 -7 -41 9 -47 24 -9 31 -7 12 5 -10 5 -18 16 -18
24 0 7 8 16 18 18 14 4 14 5 1 6 -9 0 -19 -2 -22 -6z"/>
<path d="M4353 174 c-3 -8 1 -22 9 -30 13 -13 16 -13 27 -1 14 17 4 47 -15 47
-8 0 -17 -7 -21 -16z m32 -12 c0 -18 -20 -15 -23 4 -3 10 1 15 10 12 7 -3 13
-10 13 -16z"/>
<path d="M4421 174 c0 -11 3 -14 6 -6 3 7 2 16 -1 19 -3 4 -6 -2 -5 -13z"/>
<path d="M4464 176 c-8 -21 13 -46 32 -39 20 8 13 47 -9 51 -9 2 -20 -4 -23
-12z m34 -13 c-4 -22 -22 -20 -26 1 -2 10 3 16 13 16 10 0 15 -7 13 -17z"/>
<path d="M4530 167 c0 -15 6 -23 18 -24 15 -1 18 4 14 23 -6 31 -32 32 -32 1z"/>
<path d="M4588 160 c2 -16 6 -30 8 -30 2 0 4 14 4 30 0 17 -4 30 -8 30 -5 0
-7 -13 -4 -30z"/>
<path d="M4625 180 c3 -5 8 -10 11 -10 2 0 4 5 4 10 0 6 -5 10 -11 10 -5 0 -7
-4 -4 -10z"/>
<path d="M4686 173 c-4 -9 0 -22 9 -30 8 -7 10 -8 5 -1 -15 18 -12 28 13 38
22 9 22 9 1 9 -12 1 -25 -7 -28 -16z"/>
<path d="M4750 164 c0 -22 2 -25 15 -14 17 14 20 24 5 15 -5 -3 -10 -2 -10 4
0 5 6 12 13 14 7 3 5 6 -5 6 -13 1 -18 -7 -18 -25z"/>
<path d="M4810 184 c0 -6 7 -19 16 -30 14 -18 14 -18 3 6 -14 31 -19 36 -19
24z"/>
<path d="M4859 173 c-12 -16 -12 -17 1 -7 8 6 22 14 30 17 13 5 12 6 -1 6 -9
1 -23 -7 -30 -16z"/>
<path d="M4920 175 c0 -8 8 -15 18 -15 13 0 14 2 3 9 -11 7 -11 9 0 14 10 4 9
6 -3 6 -10 1 -18 -6 -18 -14z"/>
<path d="M4975 181 c-3 -5 0 -13 6 -17 7 -4 9 -3 5 4 -3 6 2 13 11 15 16 4 16
5 1 6 -9 0 -19 -3 -23 -8z"/>
<path d="M5066 174 c-7 -18 10 -44 27 -44 6 0 2 7 -9 15 -19 15 -19 15 0 30
16 12 17 15 4 15 -9 0 -19 -7 -22 -16z"/>
<path d="M5127 184 c-10 -10 -9 -42 2 -48 18 -11 42 6 39 28 -3 21 -28 33 -41
20z m31 -21 c-4 -22 -22 -20 -26 1 -2 10 3 16 13 16 10 0 15 -7 13 -17z"/>
<path d="M5187 183 c-4 -3 -7 -16 -6 -27 0 -19 1 -19 10 3 10 24 8 36 -4 24z"/>
<path d="M5216 173 c-6 -14 -5 -15 5 -6 7 7 10 15 7 18 -3 3 -9 -2 -12 -12z"/>
<path d="M3806 164 c-4 -9 -4 -19 -1 -22 2 -3 7 3 11 12 4 9 4 19 1 22 -2 3
-7 -3 -11 -12z"/>
<path d="M3840 156 c0 -9 5 -16 10 -16 6 0 10 4 10 9 0 6 -4 13 -10 16 -5 3
-10 -1 -10 -9z"/>
<path d="M4651 154 c0 -11 3 -14 6 -6 3 7 2 16 -1 19 -3 4 -6 -2 -5 -13z"/>
<path d="M3925 150 c-3 -5 -1 -10 4 -10 6 0 11 5 11 10 0 6 -2 10 -4 10 -3 0
-8 -4 -11 -10z"/>
<path d="M4890 151 c0 -8 -7 -11 -17 -6 -15 5 -16 4 -5 -6 9 -10 15 -10 24 -1
6 6 9 15 5 19 -4 3 -7 1 -7 -6z"/>
<path d="M4992 144 c-7 -8 -8 -14 -3 -14 10 0 25 19 20 25 -2 1 -10 -3 -17
-11z"/>
<path d="M4085 140 c3 -5 8 -10 11 -10 2 0 4 5 4 10 0 6 -5 10 -11 10 -5 0 -7
-4 -4 -10z"/>
<path d="M4927 139 c7 -7 15 -10 18 -7 3 3 -2 9 -12 12 -14 6 -15 5 -6 -5z"/>
</g>
</svg>
